<mxfile host="65bd71144e">
    <diagram id="fo_OH7pscaQREdYKIsW0" name="Page-1">
        <mxGraphModel dx="79" dy="411" grid="1" gridSize="10" guides="1" tooltips="1" connect="1" arrows="1" fold="1" page="1" pageScale="1" pageWidth="827" pageHeight="1169" math="0" shadow="0">
            <root>
                <mxCell id="0"/>
                <mxCell id="1" parent="0"/>
                <mxCell id="2" value="" style="edgeStyle=none;html=1;" edge="1" parent="1" source="3" target="5">
                    <mxGeometry relative="1" as="geometry"/>
                </mxCell>
                <mxCell id="3" value="Inicio" style="ellipse;whiteSpace=wrap;html=1;fillColor=#d80073;fontColor=#ffffff;strokeColor=#A50040;" vertex="1" parent="1">
                    <mxGeometry x="1475" y="280" width="115" height="80" as="geometry"/>
                </mxCell>
                <mxCell id="4" value="" style="edgeStyle=none;html=1;" edge="1" parent="1" source="5" target="7">
                    <mxGeometry relative="1" as="geometry"/>
                </mxCell>
                <mxCell id="5" value="PESO, ALTURA" style="shape=parallelogram;perimeter=parallelogramPerimeter;whiteSpace=wrap;html=1;fixedSize=1;fillColor=#60a917;fontColor=#ffffff;strokeColor=#2D7600;" vertex="1" parent="1">
                    <mxGeometry x="1470" y="410" width="120" height="60" as="geometry"/>
                </mxCell>
                <mxCell id="6" value="" style="edgeStyle=none;html=1;" edge="1" parent="1" source="7" target="10">
                    <mxGeometry relative="1" as="geometry"/>
                </mxCell>
                <mxCell id="7" value="IMC = kg/altura&lt;span style=&quot;font-size: 10px;&quot;&gt;**2&lt;/span&gt;" style="whiteSpace=wrap;html=1;fillColor=#1ba1e2;fontColor=#ffffff;strokeColor=#006EAF;" vertex="1" parent="1">
                    <mxGeometry x="1470" y="540" width="120" height="60" as="geometry"/>
                </mxCell>
                <mxCell id="8" value="" style="edgeStyle=none;html=1;" edge="1" parent="1" source="10" target="11">
                    <mxGeometry relative="1" as="geometry">
                        <Array as="points">
                            <mxPoint x="1710" y="700"/>
                        </Array>
                    </mxGeometry>
                </mxCell>
                <mxCell id="9" value="" style="edgeStyle=none;html=1;" edge="1" parent="1" source="10" target="14">
                    <mxGeometry relative="1" as="geometry">
                        <Array as="points">
                            <mxPoint x="1370" y="700"/>
                        </Array>
                    </mxGeometry>
                </mxCell>
                <mxCell id="10" value="&amp;nbsp;imc &amp;lt; 16" style="rhombus;whiteSpace=wrap;html=1;fillColor=#e51400;fontColor=#ffffff;strokeColor=#B20000;" vertex="1" parent="1">
                    <mxGeometry x="1475" y="650" width="109.37" height="100" as="geometry"/>
                </mxCell>
                <mxCell id="11" value="(&quot;Criterio de ingreso en hospital)&quot;" style="shape=document;whiteSpace=wrap;html=1;boundedLbl=1;fillColor=#e3c800;fontColor=#000000;strokeColor=#B09500;" vertex="1" parent="1">
                    <mxGeometry x="1650" y="780" width="120" height="80" as="geometry"/>
                </mxCell>
                <mxCell id="12" value="" style="edgeStyle=none;html=1;" edge="1" parent="1" source="14" target="15">
                    <mxGeometry relative="1" as="geometry">
                        <Array as="points">
                            <mxPoint x="1540" y="820"/>
                        </Array>
                    </mxGeometry>
                </mxCell>
                <mxCell id="13" style="edgeStyle=none;html=1;entryX=0.5;entryY=0;entryDx=0;entryDy=0;" edge="1" parent="1" source="14">
                    <mxGeometry relative="1" as="geometry">
                        <mxPoint x="1220" y="880" as="targetPoint"/>
                        <Array as="points">
                            <mxPoint x="1220" y="820"/>
                            <mxPoint x="1220" y="850"/>
                        </Array>
                    </mxGeometry>
                </mxCell>
                <mxCell id="14" value="&amp;nbsp;imc &amp;lt; 17" style="rhombus;whiteSpace=wrap;html=1;fillColor=#e51400;fontColor=#ffffff;strokeColor=#B20000;" vertex="1" parent="1">
                    <mxGeometry x="1320" y="770" width="109.37" height="100" as="geometry"/>
                </mxCell>
                <mxCell id="15" value="(&quot; Infrapeso&quot;)" style="shape=document;whiteSpace=wrap;html=1;boundedLbl=1;fillColor=#e3c800;fontColor=#000000;strokeColor=#B09500;" vertex="1" parent="1">
                    <mxGeometry x="1485" y="910" width="110.01" height="70" as="geometry"/>
                </mxCell>
                <mxCell id="16" style="edgeStyle=none;html=1;fontColor=#FF0000;" edge="1" parent="1" source="18">
                    <mxGeometry relative="1" as="geometry">
                        <mxPoint x="1390" y="1030" as="targetPoint"/>
                        <Array as="points">
                            <mxPoint x="1390" y="935"/>
                        </Array>
                    </mxGeometry>
                </mxCell>
                <mxCell id="17" style="edgeStyle=none;html=1;fontColor=#FF0000;" edge="1" parent="1" source="18">
                    <mxGeometry relative="1" as="geometry">
                        <mxPoint x="1050" y="1000" as="targetPoint"/>
                        <Array as="points">
                            <mxPoint x="1050" y="935"/>
                        </Array>
                    </mxGeometry>
                </mxCell>
                <mxCell id="18" value="&lt;span style=&quot;font-weight: normal;&quot;&gt;&amp;nbsp;imc &amp;lt; 18&lt;/span&gt;" style="rhombus;whiteSpace=wrap;html=1;fontStyle=1;fillColor=#e51400;fontColor=#ffffff;strokeColor=#B20000;" vertex="1" parent="1">
                    <mxGeometry x="1160" y="880" width="120" height="110" as="geometry"/>
                </mxCell>
                <mxCell id="19" value="&lt;span&gt;True&lt;/span&gt;" style="text;html=1;strokeColor=none;fillColor=none;align=center;verticalAlign=middle;whiteSpace=wrap;rounded=0;fontColor=#009900;fontStyle=0" vertex="1" parent="1">
                    <mxGeometry x="1620" y="660" width="60" height="30" as="geometry"/>
                </mxCell>
                <mxCell id="20" value="&lt;font color=&quot;#ff0000&quot;&gt;False&lt;/font&gt;" style="text;html=1;strokeColor=none;fillColor=none;align=center;verticalAlign=middle;whiteSpace=wrap;rounded=0;fontColor=#009900;" vertex="1" parent="1">
                    <mxGeometry x="1410" y="660" width="60" height="30" as="geometry"/>
                </mxCell>
                <mxCell id="21" value="&lt;span&gt;True&lt;/span&gt;" style="text;html=1;strokeColor=none;fillColor=none;align=center;verticalAlign=middle;whiteSpace=wrap;rounded=0;fontColor=#009900;fontStyle=0" vertex="1" parent="1">
                    <mxGeometry x="1460" y="780" width="60" height="30" as="geometry"/>
                </mxCell>
                <mxCell id="22" value="&lt;font color=&quot;#ff0000&quot;&gt;False&lt;/font&gt;" style="text;html=1;strokeColor=none;fillColor=none;align=center;verticalAlign=middle;whiteSpace=wrap;rounded=0;fontColor=#009900;" vertex="1" parent="1">
                    <mxGeometry x="1260" y="780" width="60" height="30" as="geometry"/>
                </mxCell>
                <mxCell id="23" value="&lt;span&gt;True&lt;/span&gt;" style="text;html=1;strokeColor=none;fillColor=none;align=center;verticalAlign=middle;whiteSpace=wrap;rounded=0;fontColor=#009900;fontStyle=0" vertex="1" parent="1">
                    <mxGeometry x="1300" y="900" width="60" height="30" as="geometry"/>
                </mxCell>
                <mxCell id="24" value="&lt;font color=&quot;#ff0000&quot;&gt;False&lt;/font&gt;" style="text;html=1;strokeColor=none;fillColor=none;align=center;verticalAlign=middle;whiteSpace=wrap;rounded=0;fontColor=#009900;" vertex="1" parent="1">
                    <mxGeometry x="1090" y="900" width="60" height="30" as="geometry"/>
                </mxCell>
                <mxCell id="25" value="(&quot;Bajo peso&quot;)" style="shape=document;whiteSpace=wrap;html=1;boundedLbl=1;fillColor=#e3c800;fontColor=#000000;strokeColor=#B09500;" vertex="1" parent="1">
                    <mxGeometry x="1340" y="1030" width="110.01" height="70" as="geometry"/>
                </mxCell>
                <mxCell id="26" style="edgeStyle=none;html=1;fontColor=#FF0000;" edge="1" parent="1" source="28">
                    <mxGeometry relative="1" as="geometry">
                        <mxPoint x="1240" y="1130" as="targetPoint"/>
                        <Array as="points">
                            <mxPoint x="1240" y="1055"/>
                        </Array>
                    </mxGeometry>
                </mxCell>
                <mxCell id="27" style="edgeStyle=none;html=1;fontColor=#FF0000;" edge="1" parent="1" source="28">
                    <mxGeometry relative="1" as="geometry">
                        <mxPoint x="880" y="1140" as="targetPoint"/>
                        <Array as="points">
                            <mxPoint x="880" y="1055"/>
                        </Array>
                    </mxGeometry>
                </mxCell>
                <mxCell id="28" value="imc &amp;lt; 25" style="rhombus;whiteSpace=wrap;html=1;fillColor=#e51400;fontColor=#ffffff;strokeColor=#B20000;" vertex="1" parent="1">
                    <mxGeometry x="990" y="1000" width="120" height="110" as="geometry"/>
                </mxCell>
                <mxCell id="29" value="&lt;span&gt;True&lt;/span&gt;" style="text;html=1;strokeColor=none;fillColor=none;align=center;verticalAlign=middle;whiteSpace=wrap;rounded=0;fontColor=#009900;fontStyle=0" vertex="1" parent="1">
                    <mxGeometry x="1150" y="1020" width="60" height="30" as="geometry"/>
                </mxCell>
                <mxCell id="30" value="&lt;font color=&quot;#ff0000&quot;&gt;False&lt;/font&gt;" style="text;html=1;strokeColor=none;fillColor=none;align=center;verticalAlign=middle;whiteSpace=wrap;rounded=0;fontColor=#009900;" vertex="1" parent="1">
                    <mxGeometry x="910" y="1020" width="60" height="30" as="geometry"/>
                </mxCell>
                <mxCell id="31" value="(&quot;Peso saludable&quot;)" style="shape=document;whiteSpace=wrap;html=1;boundedLbl=1;fillColor=#e3c800;fontColor=#000000;strokeColor=#B09500;" vertex="1" parent="1">
                    <mxGeometry x="1189.99" y="1130" width="110.01" height="70" as="geometry"/>
                </mxCell>
                <mxCell id="32" style="edgeStyle=none;html=1;fontColor=#FF0000;" edge="1" parent="1" source="34">
                    <mxGeometry relative="1" as="geometry">
                        <mxPoint x="1080" y="1250" as="targetPoint"/>
                        <Array as="points">
                            <mxPoint x="1080" y="1195"/>
                        </Array>
                    </mxGeometry>
                </mxCell>
                <mxCell id="33" style="edgeStyle=none;html=1;fontColor=#FF0000;" edge="1" parent="1" source="34">
                    <mxGeometry relative="1" as="geometry">
                        <mxPoint x="710" y="1250" as="targetPoint"/>
                        <Array as="points">
                            <mxPoint x="710" y="1195"/>
                        </Array>
                    </mxGeometry>
                </mxCell>
                <mxCell id="34" value="&amp;nbsp;imc &amp;lt; 30" style="rhombus;whiteSpace=wrap;html=1;fillColor=#e51400;fontColor=#ffffff;strokeColor=#B20000;" vertex="1" parent="1">
                    <mxGeometry x="820" y="1140" width="120" height="110" as="geometry"/>
                </mxCell>
                <mxCell id="35" value="&lt;span&gt;True&lt;/span&gt;" style="text;html=1;strokeColor=none;fillColor=none;align=center;verticalAlign=middle;whiteSpace=wrap;rounded=0;fontColor=#009900;fontStyle=0" vertex="1" parent="1">
                    <mxGeometry x="1000" y="1160" width="60" height="30" as="geometry"/>
                </mxCell>
                <mxCell id="36" value="&lt;font color=&quot;#ff0000&quot;&gt;False&lt;/font&gt;" style="text;html=1;strokeColor=none;fillColor=none;align=center;verticalAlign=middle;whiteSpace=wrap;rounded=0;fontColor=#009900;" vertex="1" parent="1">
                    <mxGeometry x="740" y="1160" width="60" height="30" as="geometry"/>
                </mxCell>
                <mxCell id="37" value="(&quot;Sobrepeso (obesidad de grado I)&quot;)" style="shape=document;whiteSpace=wrap;html=1;boundedLbl=1;fillColor=#e3c800;fontColor=#000000;strokeColor=#B09500;" vertex="1" parent="1">
                    <mxGeometry x="1030" y="1250" width="110.01" height="70" as="geometry"/>
                </mxCell>
                <mxCell id="38" style="edgeStyle=none;html=1;fontColor=#FF0000;" edge="1" parent="1" source="40">
                    <mxGeometry relative="1" as="geometry">
                        <mxPoint x="890" y="1360" as="targetPoint"/>
                        <Array as="points">
                            <mxPoint x="890" y="1305"/>
                        </Array>
                    </mxGeometry>
                </mxCell>
                <mxCell id="39" style="edgeStyle=none;html=1;fontColor=#FF0000;entryX=0.5;entryY=0;entryDx=0;entryDy=0;" edge="1" parent="1" source="40" target="44">
                    <mxGeometry relative="1" as="geometry">
                        <mxPoint x="490" y="1380" as="targetPoint"/>
                        <Array as="points">
                            <mxPoint x="490" y="1305"/>
                        </Array>
                    </mxGeometry>
                </mxCell>
                <mxCell id="40" value="&amp;nbsp;imc &amp;lt; 35" style="rhombus;whiteSpace=wrap;html=1;fillColor=#e51400;fontColor=#ffffff;strokeColor=#B20000;" vertex="1" parent="1">
                    <mxGeometry x="650" y="1250" width="120" height="110" as="geometry"/>
                </mxCell>
                <mxCell id="41" value="&amp;nbsp;(&quot;Sobrepreso crónico (obesidad de grado II)&quot;)" style="shape=document;whiteSpace=wrap;html=1;boundedLbl=1;fillColor=#e3c800;fontColor=#000000;strokeColor=#B09500;" vertex="1" parent="1">
                    <mxGeometry x="840" y="1360" width="110.01" height="70" as="geometry"/>
                </mxCell>
                <mxCell id="42" style="edgeStyle=none;html=1;fontColor=#FF0000;" edge="1" parent="1" source="44">
                    <mxGeometry relative="1" as="geometry">
                        <mxPoint x="680" y="1480" as="targetPoint"/>
                        <Array as="points">
                            <mxPoint x="680" y="1425"/>
                        </Array>
                    </mxGeometry>
                </mxCell>
                <mxCell id="43" style="edgeStyle=none;html=1;fontColor=#FF0000;" edge="1" parent="1" source="44">
                    <mxGeometry relative="1" as="geometry">
                        <mxPoint x="330" y="1480" as="targetPoint"/>
                        <Array as="points">
                            <mxPoint x="330" y="1425"/>
                        </Array>
                    </mxGeometry>
                </mxCell>
                <mxCell id="44" value="imc &amp;lt; 40" style="rhombus;whiteSpace=wrap;html=1;fillColor=#e51400;fontColor=#ffffff;strokeColor=#B20000;" vertex="1" parent="1">
                    <mxGeometry x="430" y="1370" width="120" height="110" as="geometry"/>
                </mxCell>
                <mxCell id="45" value="(&quot;Obesidad premórbida (obesidad de grado III)&quot;)" style="shape=document;whiteSpace=wrap;html=1;boundedLbl=1;fillColor=#e3c800;fontColor=#000000;strokeColor=#B09500;" vertex="1" parent="1">
                    <mxGeometry x="630" y="1480" width="115" height="80" as="geometry"/>
                </mxCell>
                <mxCell id="46" style="edgeStyle=none;html=1;fontColor=#FF0000;" edge="1" parent="1" source="48">
                    <mxGeometry relative="1" as="geometry">
                        <mxPoint x="520" y="1580" as="targetPoint"/>
                        <Array as="points">
                            <mxPoint x="520" y="1535"/>
                        </Array>
                    </mxGeometry>
                </mxCell>
                <mxCell id="47" style="edgeStyle=none;html=1;fontColor=#FF0000;" edge="1" parent="1" source="48">
                    <mxGeometry relative="1" as="geometry">
                        <mxPoint x="170" y="1580" as="targetPoint"/>
                        <Array as="points">
                            <mxPoint x="170" y="1535"/>
                        </Array>
                    </mxGeometry>
                </mxCell>
                <mxCell id="48" value="&amp;nbsp;imc &amp;gt; 40" style="rhombus;whiteSpace=wrap;html=1;fillColor=#e51400;fontColor=#ffffff;strokeColor=#B20000;" vertex="1" parent="1">
                    <mxGeometry x="270" y="1480" width="120" height="110" as="geometry"/>
                </mxCell>
                <mxCell id="49" value="(&quot;Obesidad mórbida (obesidad de grado IV)&quot;)" style="shape=document;whiteSpace=wrap;html=1;boundedLbl=1;fillColor=#e3c800;fontColor=#000000;strokeColor=#B09500;" vertex="1" parent="1">
                    <mxGeometry x="470" y="1580" width="115" height="80" as="geometry"/>
                </mxCell>
                <mxCell id="50" value="" style="endArrow=none;html=1;fontColor=#FF0000;entryX=0.522;entryY=0.875;entryDx=0;entryDy=0;entryPerimeter=0;" edge="1" parent="1" target="49">
                    <mxGeometry width="50" height="50" relative="1" as="geometry">
                        <mxPoint x="530" y="1780" as="sourcePoint"/>
                        <mxPoint x="530" y="1730" as="targetPoint"/>
                    </mxGeometry>
                </mxCell>
                <mxCell id="51" value="" style="endArrow=none;html=1;fontColor=#FF0000;" edge="1" parent="1">
                    <mxGeometry width="50" height="50" relative="1" as="geometry">
                        <mxPoint x="687" y="1780" as="sourcePoint"/>
                        <mxPoint x="687" y="1560" as="targetPoint"/>
                    </mxGeometry>
                </mxCell>
                <mxCell id="52" value="" style="endArrow=none;html=1;fontColor=#FF0000;" edge="1" parent="1" target="41">
                    <mxGeometry width="50" height="50" relative="1" as="geometry">
                        <mxPoint x="895" y="1780" as="sourcePoint"/>
                        <mxPoint x="894.51" y="1480" as="targetPoint"/>
                    </mxGeometry>
                </mxCell>
                <mxCell id="53" value="" style="endArrow=none;html=1;fontColor=#FF0000;" edge="1" parent="1" target="37">
                    <mxGeometry width="50" height="50" relative="1" as="geometry">
                        <mxPoint x="1085" y="1780" as="sourcePoint"/>
                        <mxPoint x="1080" y="1500" as="targetPoint"/>
                    </mxGeometry>
                </mxCell>
                <mxCell id="54" value="" style="endArrow=none;html=1;fontColor=#FF0000;" edge="1" parent="1">
                    <mxGeometry width="50" height="50" relative="1" as="geometry">
                        <mxPoint x="1240" y="1780" as="sourcePoint"/>
                        <mxPoint x="1240" y="1200" as="targetPoint"/>
                    </mxGeometry>
                </mxCell>
                <mxCell id="55" value="" style="endArrow=none;html=1;fontColor=#FF0000;fillColor=#e3c800;strokeColor=#FFFFFF;" edge="1" parent="1">
                    <mxGeometry width="50" height="50" relative="1" as="geometry">
                        <mxPoint x="1390" y="1780" as="sourcePoint"/>
                        <mxPoint x="1394.5" y="1105" as="targetPoint"/>
                    </mxGeometry>
                </mxCell>
                <mxCell id="56" value="" style="endArrow=none;html=1;fontColor=#FF0000;" edge="1" parent="1">
                    <mxGeometry width="50" height="50" relative="1" as="geometry">
                        <mxPoint x="1540" y="1780" as="sourcePoint"/>
                        <mxPoint x="1540" y="990" as="targetPoint"/>
                    </mxGeometry>
                </mxCell>
                <mxCell id="57" value="" style="endArrow=none;html=1;fontColor=#FF0000;" edge="1" parent="1" target="11">
                    <mxGeometry width="50" height="50" relative="1" as="geometry">
                        <mxPoint x="1710" y="1780" as="sourcePoint"/>
                        <mxPoint x="1710" y="870" as="targetPoint"/>
                    </mxGeometry>
                </mxCell>
                <mxCell id="58" value="&lt;span&gt;True&lt;/span&gt;" style="text;html=1;strokeColor=none;fillColor=none;align=center;verticalAlign=middle;whiteSpace=wrap;rounded=0;fontColor=#009900;fontStyle=0" vertex="1" parent="1">
                    <mxGeometry x="800" y="1270" width="60" height="30" as="geometry"/>
                </mxCell>
                <mxCell id="59" value="&lt;font color=&quot;#ff0000&quot;&gt;False&lt;/font&gt;" style="text;html=1;strokeColor=none;fillColor=none;align=center;verticalAlign=middle;whiteSpace=wrap;rounded=0;fontColor=#009900;" vertex="1" parent="1">
                    <mxGeometry x="560" y="1270" width="60" height="30" as="geometry"/>
                </mxCell>
                <mxCell id="60" value="&lt;span&gt;True&lt;/span&gt;" style="text;html=1;strokeColor=none;fillColor=none;align=center;verticalAlign=middle;whiteSpace=wrap;rounded=0;fontColor=#009900;fontStyle=0" vertex="1" parent="1">
                    <mxGeometry x="590" y="1390" width="60" height="30" as="geometry"/>
                </mxCell>
                <mxCell id="61" value="&lt;font color=&quot;#ff0000&quot;&gt;False&lt;/font&gt;" style="text;html=1;strokeColor=none;fillColor=none;align=center;verticalAlign=middle;whiteSpace=wrap;rounded=0;fontColor=#009900;" vertex="1" parent="1">
                    <mxGeometry x="370" y="1390" width="60" height="30" as="geometry"/>
                </mxCell>
                <mxCell id="62" value="&lt;span&gt;True&lt;/span&gt;" style="text;html=1;strokeColor=none;fillColor=none;align=center;verticalAlign=middle;whiteSpace=wrap;rounded=0;fontColor=#009900;fontStyle=0" vertex="1" parent="1">
                    <mxGeometry x="430" y="1500" width="60" height="30" as="geometry"/>
                </mxCell>
                <mxCell id="63" value="&lt;font color=&quot;#ff0000&quot;&gt;False&lt;/font&gt;" style="text;html=1;strokeColor=none;fillColor=none;align=center;verticalAlign=middle;whiteSpace=wrap;rounded=0;fontColor=#009900;" vertex="1" parent="1">
                    <mxGeometry x="190" y="1500" width="60" height="30" as="geometry"/>
                </mxCell>
                <mxCell id="64" value="(&quot;Obesidad mórbida (obesidad de grado IV)&quot;)" style="shape=document;whiteSpace=wrap;html=1;boundedLbl=1;fillColor=#e3c800;fontColor=#000000;strokeColor=#B09500;" vertex="1" parent="1">
                    <mxGeometry x="120" y="1580" width="115" height="80" as="geometry"/>
                </mxCell>
                <mxCell id="65" value="" style="endArrow=none;html=1;fontColor=#FF0000;entryX=0.522;entryY=0.875;entryDx=0;entryDy=0;entryPerimeter=0;" edge="1" parent="1">
                    <mxGeometry width="50" height="50" relative="1" as="geometry">
                        <mxPoint x="177" y="1780" as="sourcePoint"/>
                        <mxPoint x="177.02999999999997" y="1650" as="targetPoint"/>
                    </mxGeometry>
                </mxCell>
                <mxCell id="66" value="" style="endArrow=none;html=1;fontColor=#FF0000;" edge="1" parent="1">
                    <mxGeometry width="50" height="50" relative="1" as="geometry">
                        <mxPoint x="180" y="1780" as="sourcePoint"/>
                        <mxPoint x="1710" y="1780" as="targetPoint"/>
                    </mxGeometry>
                </mxCell>
                <mxCell id="67" value="" style="endArrow=classic;html=1;fontColor=#FF0000;" edge="1" parent="1">
                    <mxGeometry width="50" height="50" relative="1" as="geometry">
                        <mxPoint x="1050" y="1780" as="sourcePoint"/>
                        <mxPoint x="1050" y="1900" as="targetPoint"/>
                    </mxGeometry>
                </mxCell>
                <mxCell id="68" value="&lt;font color=&quot;#ffffff&quot;&gt;FIN&lt;br&gt;&lt;/font&gt;" style="ellipse;whiteSpace=wrap;html=1;fontColor=#000000;fillColor=#fa6800;strokeColor=#C73500;" vertex="1" parent="1">
                    <mxGeometry x="990" y="1900" width="120" height="80" as="geometry"/>
                </mxCell>
            </root>
        </mxGraphModel>
    </diagram>
</mxfile>